<?xml version="1.0" encoding="utf-8"?>
<!-- Generator: Adobe Illustrator 21.0.0, SVG Export Plug-In . SVG Version: 6.00 Build 0)  -->
<svg version="1.1" id="Layer_1" xmlns="http://www.w3.org/2000/svg" xmlns:xlink="http://www.w3.org/1999/xlink" x="0px" y="0px"
	 viewBox="0 0 1200 1200" style="enable-background:new 0 0 1200 1200;" xml:space="preserve">
<style type="text/css">
	.st0{fill-rule:evenodd;clip-rule:evenodd;fill:#EC1C24;}
	.st1{fill:#231F20;}
	.st2{fill:#F48120;}
	.st3{fill-rule:evenodd;clip-rule:evenodd;fill:#F48120;}
</style>
<g>
	<path class="st0" d="M608.5,519.6c34.1,42.1,68.5,15.5,121.6-59.4c-12.6,17.8-68.9,91-75.8,138h-23.6
		C626.4,570.4,615,545.8,608.5,519.6"/>
	<polygon class="st1" points="181.4,678.2 192.9,678.2 198,700.3 203.7,678.2 214.8,678.2 214.8,713.9 207.5,713.9 207.5,684 
		200.2,713.9 194.5,713.9 187.8,684 187.8,713.9 181.4,713.9 	"/>
	<path class="st1" d="M220.9,687.5h7.4v26.4h-7.4V687.5z M228.3,685.3h-7.5V678h7.5V685.3z"/>
	<path class="st1" d="M233.7,687.5h7v3.6c1.2-2.8,3.4-4.1,6.6-4.1c1.7,0,3.1,0.4,4.3,1.2c1.1,0.8,1.8,1.8,2.2,3
		c0.3,1.2,0.5,3,0.5,5.5v17.3h-7.4v-17.3c0-1.8-0.2-2.9-0.7-3.3c-0.4-0.4-1.1-0.6-1.8-0.6c-1.3,0-2.2,0.4-2.6,1.2
		c-0.4,0.8-0.6,2.3-0.6,4.5v15.5h-7.4V687.5z"/>
	<path class="st1" d="M259.2,687.5h7.4v26.4h-7.4V687.5z M266.6,685.3h-7.5V678h7.5V685.3z"/>
	<path class="st1" d="M289.4,693.9l-5.2,1.6c-0.7-2.4-2-3.6-3.9-3.6c-1.5,0-2.3,0.8-2.3,2.3c0,0.9,0.3,1.5,0.9,2
		c0.6,0.5,1.8,1,3.6,1.6c2,0.7,3.5,1.3,4.4,1.9c0.9,0.5,1.7,1.4,2.4,2.4c0.6,1.1,1,2.3,1,3.7c0,2.4-0.9,4.5-2.6,6.1
		c-1.8,1.7-4.2,2.5-7.4,2.5c-6,0-9.3-2.6-9.9-7.9l5.8-0.9c0.5,2.6,1.9,4,4.2,4c2,0,2.9-0.8,2.9-2.4c0-0.9-0.3-1.5-0.9-2
		c-0.6-0.4-1.7-0.9-3.3-1.5c-3-1-5.1-2.1-6.2-3.5c-1.1-1.4-1.7-3-1.7-4.8c0-2.5,0.9-4.6,2.7-6.1c1.8-1.5,4-2.3,6.7-2.3
		C285.2,687,288.1,689.3,289.4,693.9"/>
	<path class="st1" d="M295.2,679.4l7.2-0.2v8.4h4.9v5.8h-4.9v9.7c0,1.8,0,3,0.1,3.5c0.1,0.5,0.3,1,0.8,1.3c0.4,0.4,1.2,0.5,2.2,0.5
		c0.6,0,1.3,0,2.1-0.1v5.6c-1.6,0.4-3.1,0.6-4.5,0.6c-2.2,0-4-0.4-5.1-1.3c-1.2-0.8-1.9-1.9-2.3-3.2c-0.3-1.3-0.5-3.3-0.5-6.1v-10.5
		h-2.9v-5.8h2.9V679.4z"/>
	<path class="st1" d="M310.5,687.5h6.5v6.4c1.2-4.5,3.2-6.7,6.2-6.7c0.4,0,0.8,0,1.3,0.1v7.2c-0.5-0.1-0.9-0.1-1.2-0.1
		c-3.6,0-5.4,2.7-5.4,8.2v11.4h-7.4V687.5z"/>
	<path class="st1" d="M325.5,687.5h7.4l3.5,16.1l3.5-16.1h6.4l-8,26.8c-0.8,2.6-1.4,4.3-2,5.4c-0.5,1-1.3,1.9-2.4,2.5
		c-1.1,0.7-2.5,1-4.1,1c-1,0-2.1-0.1-3.1-0.4V717c0.7,0.1,1.4,0.2,2.1,0.2c1.4,0,2.4-0.2,2.9-0.7c0.5-0.5,1-1.5,1.5-3.1L325.5,687.5
		z"/>
	<path class="st1" d="M370.8,700.7c0-3.4-0.2-5.6-0.7-6.8c-0.5-1.2-1.3-1.8-2.4-1.8c-1.1,0-1.9,0.6-2.4,1.7
		c-0.5,1.1-0.7,3.4-0.7,6.9c0,3.2,0.2,5.5,0.6,6.7c0.4,1.3,1.2,1.9,2.5,1.9c1.2,0,2-0.6,2.4-1.9C370.6,706.2,370.8,704,370.8,700.7
		 M378.4,700.7c0,9.2-3.6,13.8-10.7,13.8c-7.2,0-10.7-4.6-10.7-13.8c0-9.2,3.6-13.7,10.7-13.7C374.8,687,378.4,691.6,378.4,700.7z"
		/>
	<polygon class="st1" points="405.2,678.2 413.2,678.2 417,702.9 421.7,678.2 428.9,678.2 433.2,703 437.6,678.2 444.2,678.2 
		436.6,714.1 429.5,714.1 424.8,689.3 419.9,714.1 413,714.1 	"/>
	<path class="st1" d="M458.6,700.7c0-3.4-0.2-5.6-0.7-6.8c-0.5-1.2-1.3-1.8-2.4-1.8c-1.1,0-1.9,0.6-2.4,1.7
		c-0.5,1.1-0.7,3.4-0.7,6.9c0,3.2,0.2,5.5,0.6,6.7c0.4,1.3,1.2,1.9,2.5,1.9c1.2,0,2-0.6,2.4-1.9C458.4,706.2,458.6,704,458.6,700.7
		 M466.3,700.7c0,9.2-3.6,13.8-10.7,13.8c-7.2,0-10.7-4.6-10.7-13.8c0-9.2,3.6-13.7,10.7-13.7C462.7,687,466.3,691.6,466.3,700.7z"
		/>
	<path class="st1" d="M470.6,687.5h7v3.6c1.3-2.8,3.4-4.1,6.4-4.1c3.1,0,5,1.4,5.7,4.1c1.2-2.8,3.3-4.1,6.4-4.1
		c1.7,0,3.1,0.3,4.1,0.9c1,0.6,1.7,1.5,2.1,2.6c0.4,1.1,0.6,3.1,0.6,6.2v17.3h-7.4v-16.5c0-2-0.1-3.3-0.4-3.8
		c-0.3-0.6-0.9-0.9-1.8-0.9c-1.2,0-1.9,0.4-2.3,1.2c-0.3,0.8-0.5,2.3-0.5,4.7v15.4h-7.4v-16.8c0-1.9-0.1-3.1-0.4-3.7
		c-0.3-0.6-0.9-0.8-1.8-0.8c-1.2,0-2,0.4-2.4,1.2c-0.4,0.8-0.6,2.4-0.6,4.7v15.4h-7.4V687.5z"/>
	<path class="st1" d="M521.3,697.6c0-0.3,0-0.5,0-0.7c0-3.3-1.1-5-3.4-5c-2.2,0-3.4,1.9-3.4,5.7H521.3z M528.3,701.9h-13.8v1.5
		c0,2.4,0.3,3.9,1,4.7c0.6,0.8,1.5,1.2,2.5,1.2c2.2,0,3.5-1.5,3.8-4.5l6.6,0.4c-1.2,6.2-4.7,9.2-10.5,9.2c-3.6,0-6.3-1.2-8.2-3.6
		c-1.9-2.4-2.8-5.7-2.8-9.7c0-4.6,1-8.1,3-10.5c2-2.4,4.6-3.6,7.9-3.6c3,0,5.5,1.1,7.5,3.2C527.3,692.3,528.3,696.2,528.3,701.9z"/>
	<path class="st1" d="M532.6,687.5h7v3.6c1.2-2.8,3.4-4.1,6.6-4.1c1.7,0,3.1,0.4,4.3,1.2c1.1,0.8,1.8,1.8,2.2,3
		c0.3,1.2,0.5,3,0.5,5.5v17.3h-7.4v-17.3c0-1.8-0.2-2.9-0.7-3.3c-0.4-0.4-1.1-0.6-1.8-0.6c-1.3,0-2.2,0.4-2.6,1.2
		c-0.4,0.8-0.6,2.3-0.6,4.5v15.5h-7.4V687.5z"/>
	<path class="st1" d="M580.9,701.3c-2.1,0.2-3.7,0.7-4.6,1.4c-0.9,0.7-1.4,1.9-1.4,3.6c0,2.2,0.8,3.3,2.5,3.3c0.9,0,1.7-0.5,2.4-1.5
		c0.7-1,1.1-2.8,1.1-5.5V701.3z M575.2,695.9l-7-0.7c0.3-2.7,1.5-4.7,3.4-6.1c1.9-1.4,4.3-2.1,7.3-2.1c2.5,0,4.5,0.5,6,1.4
		c1.5,0.9,2.4,2,2.8,3.3c0.4,1.2,0.6,3.2,0.6,5.8v10.5c0,3.3,0.1,5.2,0.4,5.9h-6.8c-0.2-0.7-0.4-2.1-0.4-4.1c-1.6,3.1-4,4.6-7.2,4.6
		c-2.1,0-3.7-0.6-5-1.8c-1.3-1.2-1.9-3-1.9-5.4c0-2.9,1-5.2,2.9-6.8c1.9-1.6,5.5-2.6,10.6-2.9v-1c0-1.8-0.2-3-0.5-3.7
		c-0.3-0.7-1-1-2.1-1C576.5,691.9,575.4,693.2,575.2,695.9z"/>
	<path class="st1" d="M593.7,687.5h7v3.6c1.2-2.8,3.4-4.1,6.6-4.1c1.7,0,3.1,0.4,4.3,1.2c1.1,0.8,1.8,1.8,2.2,3
		c0.3,1.2,0.5,3,0.5,5.5v17.3h-7.4v-17.3c0-1.8-0.2-2.9-0.7-3.3c-0.4-0.4-1.1-0.6-1.8-0.6c-1.3,0-2.2,0.4-2.6,1.2
		c-0.4,0.8-0.6,2.3-0.6,4.5v15.5h-7.4V687.5z"/>
	<path class="st1" d="M632.2,698.6c0-2.6-0.3-4.3-0.8-5.2c-0.5-0.9-1.3-1.3-2.4-1.3c-1.3,0-2.1,0.6-2.5,1.8
		c-0.4,1.2-0.7,3.7-0.7,7.6c0,2.9,0.2,4.9,0.7,6c0.5,1.2,1.3,1.7,2.4,1.7c0.9,0,1.7-0.4,2.3-1.2c0.6-0.8,0.9-2.4,0.9-4.8V698.6z
		 M632.2,678.2h7.2v35.7h-6.9v-4.4c-1.1,3.2-3.1,4.7-6,4.7c-2.8,0-4.9-1.2-6.3-3.7c-1.4-2.5-2.1-5.7-2.1-9.8c0-4.6,0.8-8,2.4-10.3
		c1.6-2.3,3.7-3.4,6.4-3.4c2.5,0,4.2,0.9,5.2,2.8V678.2z"/>
	<path class="st1" d="M672.8,700.9l7.2,0.4c-0.3,3.9-1.5,7-3.7,9.5c-2.2,2.4-5.1,3.7-8.7,3.7c-4.4,0-7.7-1.6-10-4.9
		c-2.3-3.3-3.4-7.7-3.4-13.5c0-5.8,1.1-10.3,3.4-13.5c2.3-3.3,5.7-4.9,10.2-4.9c7.4,0,11.5,4.6,12.2,13.8l-7.2,0.5
		c-0.2-5.3-1.8-8-5-8c-1.6,0-2.9,0.9-3.9,2.6c-1,1.7-1.5,5-1.5,9.9c0,4.4,0.4,7.4,1.3,9.1c0.9,1.7,2.2,2.5,4,2.5
		C670.6,708.1,672.3,705.7,672.8,700.9"/>
	<path class="st1" d="M684,678.2h7.4v12.1c1.3-2.2,3.5-3.3,6.5-3.3c1.8,0,3.2,0.4,4.2,1.3c1,0.8,1.7,1.9,2,3.2
		c0.3,1.3,0.4,3.1,0.4,5.6v16.9h-7.4v-17c0-1.7-0.2-2.9-0.5-3.4c-0.3-0.6-1-0.8-2-0.8c-1,0-1.8,0.3-2.4,0.8
		c-0.6,0.5-0.9,1.8-0.9,3.7v16.8H684V678.2z"/>
	<path class="st1" d="M709.5,687.5h7.4v26.4h-7.4V687.5z M717,685.3h-7.5V678h7.5V685.3z"/>
	<rect x="722.3" y="678.2" class="st1" width="7.4" height="35.7"/>
	<path class="st1" d="M748,698.6c0-2.6-0.3-4.3-0.8-5.2c-0.5-0.9-1.3-1.3-2.4-1.3c-1.3,0-2.1,0.6-2.5,1.8c-0.4,1.2-0.7,3.7-0.7,7.6
		c0,2.9,0.2,4.9,0.7,6c0.5,1.2,1.3,1.7,2.4,1.7c0.9,0,1.7-0.4,2.3-1.2c0.6-0.8,0.9-2.4,0.9-4.8V698.6z M748,678.2h7.2v35.7h-6.9
		v-4.4c-1.1,3.2-3.1,4.7-6,4.7c-2.8,0-4.9-1.2-6.3-3.7c-1.4-2.5-2.1-5.7-2.1-9.8c0-4.6,0.8-8,2.4-10.3c1.6-2.3,3.7-3.4,6.4-3.4
		c2.5,0,4.2,0.9,5.2,2.8V678.2z"/>
	<path class="st1" d="M779.1,684.3v23.5h1.3c1.8,0,3.2-0.3,4.2-1.1c1-0.7,1.8-1.9,2.4-3.7c0.6-1.7,0.9-4.2,0.9-7.5c0-3-0.3-5.4-1-7
		c-0.7-1.6-1.5-2.8-2.5-3.3c-1-0.6-2.3-0.9-4.1-0.9H779.1z M771.3,678.2h8.5c3.7,0,6.6,0.5,8.9,1.5c2.3,1,4.1,2.8,5.5,5.5
		c1.4,2.7,2.1,6.2,2.1,10.8c0,3.2-0.4,6.1-1.3,8.5c-0.8,2.5-1.9,4.4-3.3,5.9c-1.4,1.4-2.9,2.4-4.6,2.9c-1.7,0.5-3.8,0.7-6.4,0.7
		h-9.4V678.2z"/>
	<path class="st1" d="M814.1,697.6c0-0.3,0-0.5,0-0.7c0-3.3-1.1-5-3.4-5c-2.2,0-3.4,1.9-3.4,5.7H814.1z M821,701.9h-13.8v1.5
		c0,2.4,0.3,3.9,1,4.7c0.6,0.8,1.5,1.2,2.5,1.2c2.2,0,3.5-1.5,3.8-4.5l6.6,0.4c-1.2,6.2-4.7,9.2-10.5,9.2c-3.6,0-6.3-1.2-8.2-3.6
		c-1.9-2.4-2.8-5.7-2.8-9.7c0-4.6,1-8.1,3-10.5c2-2.4,4.6-3.6,7.9-3.6c3,0,5.5,1.1,7.5,3.2C820,692.3,821,696.2,821,701.9z"/>
	<polygon class="st1" points="821.9,687.5 828.9,687.5 832.6,703.2 836.3,687.5 842.4,687.5 835.2,713.9 829.3,713.9 	"/>
	<rect x="868.9" y="678.2" class="st1" width="7.4" height="35.7"/>
	<path class="st1" d="M894.4,700.7c0-3.4-0.2-5.6-0.7-6.8c-0.5-1.2-1.3-1.8-2.4-1.8c-1.1,0-1.9,0.6-2.4,1.7
		c-0.5,1.1-0.7,3.4-0.7,6.9c0,3.2,0.2,5.5,0.6,6.7c0.4,1.3,1.2,1.9,2.5,1.9c1.2,0,2-0.6,2.4-1.9C894.2,706.2,894.4,704,894.4,700.7
		 M902.1,700.7c0,9.2-3.6,13.8-10.7,13.8c-7.2,0-10.7-4.6-10.7-13.8c0-9.2,3.6-13.7,10.7-13.7C898.5,687,902.1,691.6,902.1,700.7z"
		/>
	<path class="st1" d="M913.6,703.1c0,2.5,0.2,4.2,0.6,4.9c0.4,0.8,1.2,1.1,2.5,1.1c1.1,0,1.9-0.5,2.5-1.5c0.5-1,0.8-3.5,0.8-7.4
		c0-3.2-0.2-5.4-0.7-6.6c-0.5-1.2-1.3-1.7-2.4-1.7c-0.9,0-1.7,0.4-2.3,1.1c-0.6,0.7-1,2.4-1,5V703.1z M906.4,687.5h6.9v3.9
		c1.4-2.9,3.4-4.3,6-4.3c2.4,0,4.4,1.1,6,3.2c1.6,2.2,2.4,5.5,2.4,9.9c0,4.6-0.8,8.1-2.3,10.5c-1.6,2.4-3.8,3.5-6.6,3.5
		c-2,0-3.7-0.8-5-2.3v10.9h-7.2V687.5z"/>
	<path class="st1" d="M931.9,687.5h7v3.6c1.3-2.8,3.4-4.1,6.4-4.1c3.1,0,5,1.4,5.7,4.1c1.2-2.8,3.3-4.1,6.4-4.1
		c1.7,0,3.1,0.3,4.1,0.9c1,0.6,1.7,1.5,2.1,2.6c0.4,1.1,0.6,3.1,0.6,6.2v17.3H957v-16.5c0-2-0.1-3.3-0.4-3.8
		c-0.3-0.6-0.9-0.9-1.8-0.9c-1.2,0-1.9,0.4-2.2,1.2c-0.3,0.8-0.5,2.3-0.5,4.7v15.4h-7.4v-16.8c0-1.9-0.1-3.1-0.4-3.7
		c-0.3-0.6-0.9-0.8-1.8-0.8c-1.2,0-2,0.4-2.4,1.2c-0.4,0.8-0.6,2.4-0.6,4.7v15.4h-7.4V687.5z"/>
	<path class="st1" d="M982.7,697.6c0-0.3,0-0.5,0-0.7c0-3.3-1.1-5-3.4-5c-2.2,0-3.4,1.9-3.4,5.7H982.7z M989.6,701.9h-13.8v1.5
		c0,2.4,0.3,3.9,1,4.7c0.6,0.8,1.5,1.2,2.5,1.2c2.2,0,3.5-1.5,3.8-4.5l6.6,0.4c-1.2,6.2-4.7,9.2-10.5,9.2c-3.6,0-6.3-1.2-8.2-3.6
		c-1.9-2.4-2.8-5.7-2.8-9.7c0-4.6,1-8.1,3-10.5c2-2.4,4.6-3.6,7.9-3.6c3,0,5.5,1.1,7.5,3.2C988.6,692.3,989.6,696.2,989.6,701.9z"/>
	<path class="st1" d="M994,687.5h7v3.6c1.2-2.8,3.4-4.1,6.6-4.1c1.7,0,3.1,0.4,4.3,1.2c1.1,0.8,1.8,1.8,2.2,3c0.3,1.2,0.5,3,0.5,5.5
		v17.3h-7.4v-17.3c0-1.8-0.2-2.9-0.7-3.3c-0.4-0.4-1.1-0.6-1.8-0.6c-1.3,0-2.2,0.4-2.6,1.2c-0.4,0.8-0.6,2.3-0.6,4.5v15.5H994V687.5
		z"/>
	<path class="st1" d="M1020.6,679.4l7.2-0.2v8.4h4.9v5.8h-4.9v9.7c0,1.8,0,3,0.1,3.5c0.1,0.5,0.3,1,0.8,1.3c0.4,0.4,1.2,0.5,2.2,0.5
		c0.6,0,1.3,0,2.1-0.1v5.6c-1.6,0.4-3.1,0.6-4.5,0.6c-2.2,0-4-0.4-5.1-1.3c-1.2-0.8-1.9-1.9-2.3-3.2c-0.3-1.3-0.5-3.3-0.5-6.1v-10.5
		h-2.9v-5.8h2.9V679.4z"/>
	<path class="st1" d="M416.8,755.6h12.4v19.1h-3.3l-1-4.1c-1.9,3.1-4.8,4.6-8.6,4.6c-4.1,0-7.3-1.6-9.7-4.8
		c-2.4-3.2-3.6-7.5-3.6-12.9c0-5.9,1.2-10.5,3.5-14c2.3-3.4,5.8-5.1,10.4-5.1c7.3,0,11.4,4.1,12.3,12.2l-7.1,1.2
		c-0.5-4.7-2.2-7-5.1-7c-1.8,0-3.2,0.9-4.2,2.6c-1.1,1.7-1.6,5-1.6,9.8c0,4.3,0.5,7.3,1.6,9c1,1.7,2.5,2.6,4.5,2.6
		c3.2,0,4.8-2.4,4.8-7.1h-5.4V755.6z"/>
	<path class="st1" d="M447.4,761.5c0-3.4-0.2-5.6-0.7-6.8c-0.5-1.2-1.3-1.8-2.4-1.8c-1.1,0-1.9,0.6-2.4,1.7
		c-0.5,1.1-0.7,3.4-0.7,6.9c0,3.2,0.2,5.5,0.6,6.7c0.4,1.3,1.2,1.9,2.5,1.9c1.2,0,2-0.6,2.4-1.9
		C447.2,766.9,447.4,764.7,447.4,761.5 M455,761.4c0,9.2-3.6,13.8-10.7,13.8c-7.2,0-10.7-4.6-10.7-13.8c0-9.2,3.6-13.7,10.7-13.7
		C451.4,747.7,455,752.3,455,761.4z"/>
	<polygon class="st1" points="455.8,748.3 462.9,748.3 466.6,763.9 470.3,748.3 476.4,748.3 469.2,774.7 463.3,774.7 	"/>
	<path class="st1" d="M491.7,758.3c0-0.3,0-0.5,0-0.7c0-3.3-1.1-5-3.4-5c-2.2,0-3.4,1.9-3.4,5.7H491.7z M498.6,762.7h-13.8v1.5
		c0,2.4,0.3,3.9,1,4.7c0.6,0.8,1.5,1.2,2.5,1.2c2.2,0,3.5-1.5,3.8-4.5l6.6,0.4c-1.2,6.2-4.7,9.2-10.5,9.2c-3.6,0-6.3-1.2-8.2-3.6
		c-1.9-2.4-2.8-5.7-2.8-9.7c0-4.6,1-8.1,3-10.5c2-2.4,4.6-3.6,7.9-3.6c3,0,5.5,1.1,7.5,3.2C497.6,753,498.6,757,498.6,762.7z"/>
	<path class="st1" d="M503,748.3h6.5v6.4c1.2-4.5,3.2-6.7,6.2-6.7c0.4,0,0.8,0,1.3,0.1v7.2c-0.5-0.1-0.9-0.1-1.2-0.1
		c-3.6,0-5.4,2.7-5.4,8.2v11.4H503V748.3z"/>
	<path class="st1" d="M519.4,748.3h7v3.6c1.2-2.8,3.4-4.1,6.6-4.1c1.7,0,3.1,0.4,4.3,1.2c1.1,0.8,1.8,1.8,2.2,3
		c0.3,1.2,0.5,3,0.5,5.5v17.3h-7.4v-17.3c0-1.8-0.2-2.9-0.7-3.3c-0.4-0.4-1.1-0.6-1.8-0.6c-1.3,0-2.2,0.4-2.6,1.2
		c-0.4,0.8-0.6,2.3-0.6,4.5v15.5h-7.4V748.3z"/>
	<path class="st1" d="M544.9,748.3h7v3.6c1.3-2.8,3.4-4.1,6.4-4.1c3.1,0,5,1.4,5.7,4.1c1.2-2.8,3.3-4.1,6.4-4.1
		c1.7,0,3.1,0.3,4.1,0.9c1,0.6,1.7,1.5,2.1,2.6c0.4,1.1,0.6,3.1,0.6,6.2v17.3H570v-16.5c0-2-0.1-3.3-0.4-3.8
		c-0.3-0.6-0.9-0.9-1.8-0.9c-1.2,0-1.9,0.4-2.2,1.2c-0.3,0.8-0.5,2.3-0.5,4.7v15.4h-7.4v-16.8c0-1.9-0.1-3.1-0.4-3.7
		c-0.3-0.6-0.9-0.8-1.8-0.8c-1.2,0-2,0.4-2.4,1.2c-0.4,0.8-0.6,2.4-0.6,4.7v15.4h-7.4V748.3z"/>
	<path class="st1" d="M595.7,758.3c0-0.3,0-0.5,0-0.7c0-3.3-1.1-5-3.4-5c-2.2,0-3.4,1.9-3.4,5.7H595.7z M602.6,762.7h-13.8v1.5
		c0,2.4,0.3,3.9,1,4.7c0.6,0.8,1.5,1.2,2.5,1.2c2.2,0,3.5-1.5,3.8-4.5l6.6,0.4c-1.2,6.2-4.7,9.2-10.5,9.2c-3.6,0-6.3-1.2-8.2-3.6
		c-1.9-2.4-2.8-5.7-2.8-9.7c0-4.6,1-8.1,3-10.5c2-2.4,4.6-3.6,7.9-3.6c3,0,5.5,1.1,7.5,3.2C601.6,753,602.6,757,602.6,762.7z"/>
	<path class="st1" d="M607,748.3h7v3.6c1.2-2.8,3.4-4.1,6.6-4.1c1.7,0,3.1,0.4,4.3,1.2c1.1,0.8,1.8,1.8,2.2,3c0.3,1.2,0.5,3,0.5,5.5
		v17.3h-7.4v-17.3c0-1.8-0.2-2.9-0.7-3.3c-0.4-0.4-1.1-0.6-1.8-0.6c-1.3,0-2.2,0.4-2.6,1.2c-0.4,0.8-0.6,2.3-0.6,4.5v15.5H607V748.3
		z"/>
	<path class="st1" d="M633.6,740.1l7.2-0.2v8.4h4.9v5.8h-4.9v9.7c0,1.8,0,3,0.1,3.5c0.1,0.5,0.3,1,0.8,1.3c0.4,0.4,1.2,0.5,2.2,0.5
		c0.6,0,1.3,0,2.1-0.1v5.6c-1.6,0.4-3.1,0.6-4.5,0.6c-2.2,0-4-0.4-5.1-1.3c-1.2-0.8-1.9-1.9-2.3-3.2c-0.3-1.3-0.5-3.3-0.5-6.1V754
		h-2.9v-5.8h2.9V740.1z"/>
	<path class="st1" d="M671.6,761.5c0-3.4-0.2-5.6-0.7-6.8c-0.5-1.2-1.3-1.8-2.4-1.8c-1.1,0-1.9,0.6-2.4,1.7
		c-0.5,1.1-0.7,3.4-0.7,6.9c0,3.2,0.2,5.5,0.6,6.7c0.4,1.3,1.2,1.9,2.5,1.9c1.2,0,2-0.6,2.4-1.9
		C671.4,766.9,671.6,764.7,671.6,761.5 M679.2,761.4c0,9.2-3.6,13.8-10.7,13.8c-7.2,0-10.7-4.6-10.7-13.8c0-9.2,3.6-13.7,10.7-13.7
		C675.7,747.7,679.2,752.3,679.2,761.4z"/>
	<path class="st1" d="M691.9,748.3h4.7v5.8h-4.7v20.6h-7.1V754h-3v-5.8h3c0-2.6,0.2-4.6,0.6-5.8c0.4-1.3,1.2-2.4,2.5-3.4
		c1.3-1,3-1.5,5.2-1.5c1.3,0,2.5,0.1,3.7,0.3v5.8c-0.6-0.1-1.1-0.1-1.6-0.1c-1.4,0-2.3,0.3-2.7,0.9
		C692.1,745,691.9,746.3,691.9,748.3"/>
	<rect x="709.7" y="738.9" class="st1" width="7.8" height="35.7"/>
	<path class="st1" d="M723.7,748.3h7v3.6c1.2-2.8,3.4-4.1,6.6-4.1c1.7,0,3.1,0.4,4.3,1.2c1.1,0.8,1.8,1.8,2.2,3
		c0.3,1.2,0.5,3,0.5,5.5v17.3h-7.4v-17.3c0-1.8-0.2-2.9-0.7-3.3c-0.4-0.4-1.1-0.6-1.8-0.6c-1.3,0-2.2,0.4-2.6,1.2
		c-0.4,0.8-0.6,2.3-0.6,4.5v15.5h-7.4V748.3z"/>
	<path class="st1" d="M762.1,759.3c0-2.6-0.3-4.3-0.8-5.2c-0.5-0.9-1.3-1.3-2.4-1.3c-1.3,0-2.1,0.6-2.5,1.8
		c-0.4,1.2-0.7,3.7-0.7,7.6c0,2.9,0.2,4.9,0.7,6c0.5,1.2,1.3,1.7,2.4,1.7c0.9,0,1.7-0.4,2.3-1.2c0.6-0.8,0.9-2.4,0.9-4.8V759.3z
		 M762.1,738.9h7.2v35.7h-6.9v-4.4c-1.1,3.2-3.1,4.7-6,4.7c-2.8,0-4.9-1.2-6.3-3.7c-1.4-2.5-2.1-5.7-2.1-9.8c0-4.6,0.8-8,2.4-10.3
		c1.6-2.3,3.7-3.4,6.4-3.4c2.5,0,4.2,0.9,5.2,2.8V738.9z"/>
	<path class="st1" d="M774.7,748.3h7.4v26.4h-7.4V748.3z M782.2,746.1h-7.5v-7.3h7.5V746.1z"/>
	<path class="st1" d="M800.3,762.1c-2.1,0.2-3.7,0.7-4.6,1.4c-0.9,0.7-1.4,1.9-1.4,3.6c0,2.2,0.8,3.3,2.5,3.3c0.9,0,1.7-0.5,2.4-1.5
		c0.7-1,1.1-2.8,1.1-5.5V762.1z M794.6,756.7l-7-0.7c0.3-2.7,1.5-4.7,3.4-6.1c1.9-1.4,4.3-2.1,7.3-2.1c2.5,0,4.5,0.5,6,1.4
		c1.5,0.9,2.4,2,2.8,3.3c0.4,1.2,0.6,3.2,0.6,5.8v10.5c0,3.3,0.1,5.2,0.4,5.9h-6.8c-0.2-0.7-0.4-2.1-0.4-4.1c-1.6,3.1-4,4.6-7.2,4.6
		c-2.1,0-3.7-0.6-5-1.8c-1.3-1.2-1.9-3-1.9-5.4c0-2.9,1-5.2,2.9-6.8c1.9-1.6,5.5-2.6,10.6-2.9v-1c0-1.8-0.2-3-0.5-3.7
		c-0.3-0.7-1-1-2.1-1C795.8,752.6,794.8,753.9,794.6,756.7z"/>
	<path class="st1" d="M391,687.5h4.7v5.8H391v20.6H384v-20.6h-3v-5.8h3c0-2.6,0.2-4.6,0.6-5.8c0.4-1.3,1.2-2.4,2.5-3.4
		c1.3-1,3-1.5,5.2-1.5c1.3,0,2.5,0.1,3.7,0.3v5.8c-0.6-0.1-1.1-0.1-1.6-0.1c-1.4,0-2.3,0.3-2.7,0.9C391.2,684.3,391,685.5,391,687.5
		"/>
	<path class="st1" d="M857.7,697.6c0-0.3,0-0.5,0-0.7c0-3.3-1.1-5-3.4-5c-2.2,0-3.4,1.9-3.4,5.7H857.7z M864.6,701.9h-13.8v1.5
		c0,2.4,0.3,3.9,1,4.7c0.6,0.8,1.5,1.2,2.5,1.2c2.2,0,3.5-1.5,3.8-4.5l6.6,0.4c-1.2,6.2-4.7,9.2-10.5,9.2c-3.6,0-6.3-1.2-8.2-3.6
		c-1.9-2.4-2.8-5.7-2.8-9.7c0-4.6,1-8.1,3-10.5c2-2.4,4.6-3.6,7.9-3.6c3,0,5.5,1.1,7.5,3.2C863.6,692.3,864.6,696.2,864.6,701.9z"/>
	<path class="st0" d="M643.2,493.6c10.1,0,18.2,8.9,18.2,19.9c0,11-8.2,19.9-18.2,19.9c-10.1,0-18.2-8.9-18.2-19.9
		C625,502.4,633.1,493.6,643.2,493.6"/>
	<polygon class="st1" points="457.9,637.7 457.9,616.4 450,616.4 450,613.6 469,613.6 469,616.4 461.1,616.4 461.1,637.7 	"/>
	<path class="st1" d="M470.2,628.9c0,2.2,0.5,3.9,1.5,5c1,1.1,2.2,1.7,3.7,1.7c1.5,0,2.7-0.6,3.7-1.7c1-1.1,1.5-2.8,1.5-5.1
		c0-2.2-0.5-3.8-1.5-4.9c-1-1.1-2.2-1.7-3.7-1.7c-1.5,0-2.7,0.6-3.7,1.7C470.6,625,470.2,626.7,470.2,628.9 M467.1,628.9
		c0-3.2,0.9-5.6,2.7-7.2c1.5-1.3,3.3-1.9,5.5-1.9c2.4,0,4.4,0.8,5.9,2.4c1.5,1.6,2.3,3.7,2.3,6.5c0,2.2-0.3,4-1,5.3
		c-0.7,1.3-1.7,2.3-2.9,3c-1.3,0.7-2.7,1.1-4.2,1.1c-2.4,0-4.4-0.8-5.9-2.3C467.9,634.1,467.1,631.9,467.1,628.9z"/>
	<path class="st1" d="M490.1,637.7l-5.3-17.5h3.1l2.8,10.1l1,3.8c0-0.2,0.3-1.4,0.9-3.6l2.8-10.2h3l2.6,10.1l0.9,3.3l1-3.4l3-10.1
		h2.9l-5.5,17.5h-3.1l-2.8-10.4l-0.7-3l-3.5,13.4H490.1z"/>
	<path class="st1" d="M522.4,628.9c-1.1,0.4-2.7,0.8-4.8,1.1c-1.2,0.2-2.1,0.4-2.6,0.6c-0.5,0.2-0.9,0.5-1.2,1
		c-0.3,0.4-0.4,0.9-0.4,1.4c0,0.8,0.3,1.4,0.9,2c0.6,0.5,1.5,0.8,2.6,0.8c1.1,0,2.2-0.2,3-0.7c0.9-0.5,1.5-1.2,2-2
		c0.3-0.7,0.5-1.6,0.5-2.9L522.4,628.9z M522.7,635.5c-1.1,0.9-2.2,1.6-3.2,2c-1,0.4-2.1,0.6-3.3,0.6c-1.9,0-3.4-0.5-4.4-1.4
		c-1-0.9-1.5-2.1-1.5-3.6c0-0.9,0.2-1.6,0.6-2.3c0.4-0.7,0.9-1.3,1.5-1.7c0.6-0.4,1.3-0.8,2.1-1c0.6-0.2,1.5-0.3,2.6-0.4
		c2.4-0.3,4.2-0.6,5.3-1c0-0.4,0-0.7,0-0.8c0-1.2-0.3-2-0.8-2.5c-0.8-0.7-1.9-1-3.4-1c-1.4,0-2.4,0.2-3.1,0.7
		c-0.7,0.5-1.2,1.4-1.5,2.6l-2.9-0.4c0.3-1.2,0.7-2.2,1.3-3c0.6-0.8,1.5-1.3,2.6-1.8c1.1-0.4,2.5-0.6,4-0.6c1.5,0,2.7,0.2,3.6,0.5
		c0.9,0.4,1.6,0.8,2.1,1.3c0.4,0.5,0.7,1.2,0.9,2c0.1,0.5,0.1,1.4,0.1,2.7v3.9c0,2.7,0.1,4.5,0.2,5.2c0.1,0.7,0.4,1.4,0.7,2.1h-3.1
		C522.9,637,522.7,636.3,522.7,635.5z"/>
	<path class="st1" d="M529.9,637.7v-17.5h2.7v2.7c0.7-1.2,1.3-2.1,1.9-2.5c0.6-0.4,1.2-0.6,1.9-0.6c1,0,2,0.3,3,0.9l-1.1,2.7
		c-0.7-0.4-1.4-0.6-2.2-0.6c-0.6,0-1.2,0.2-1.7,0.6c-0.5,0.4-0.9,0.9-1.1,1.6c-0.3,1-0.5,2.2-0.5,3.4v9.1H529.9z"/>
	<path class="st1" d="M543.1,629c0,2.2,0.5,3.9,1.4,5c0.9,1.1,2.1,1.7,3.3,1.7c1.3,0,2.4-0.5,3.3-1.6c0.9-1.1,1.4-2.7,1.4-4.8
		c0-2.4-0.5-4.1-1.4-5.2c-0.9-1.1-2.1-1.7-3.4-1.7c-1.3,0-2.4,0.5-3.3,1.6C543.5,625,543.1,626.7,543.1,629 M552.4,637.7v-2.2
		c-1.1,1.7-2.7,2.6-4.9,2.6c-1.4,0-2.7-0.4-3.8-1.1c-1.2-0.8-2.1-1.8-2.7-3.2c-0.6-1.4-1-3-1-4.7c0-1.7,0.3-3.3,0.9-4.7
		c0.6-1.4,1.5-2.5,2.6-3.3c1.2-0.8,2.5-1.1,3.9-1.1c1.1,0,2,0.2,2.8,0.7c0.8,0.4,1.5,1,2,1.7v-8.7h3v24.1H552.4z"/>
	<path class="st1" d="M558.7,632.5l2.9-0.5c0.2,1.2,0.6,2.1,1.4,2.7c0.8,0.6,1.8,0.9,3.2,0.9c1.4,0,2.4-0.3,3-0.8
		c0.7-0.5,1-1.2,1-1.9c0-0.7-0.3-1.2-0.9-1.6c-0.4-0.3-1.4-0.6-3-1c-2.2-0.5-3.7-1-4.5-1.4c-0.8-0.4-1.5-1-1.9-1.7
		c-0.4-0.7-0.7-1.5-0.7-2.3c0-0.8,0.2-1.5,0.5-2.2c0.4-0.7,0.8-1.2,1.5-1.6c0.5-0.3,1.1-0.6,1.9-0.9c0.8-0.2,1.6-0.4,2.6-0.4
		c1.4,0,2.6,0.2,3.6,0.6c1,0.4,1.8,0.9,2.3,1.6c0.5,0.7,0.8,1.6,1,2.7l-2.9,0.4c-0.1-0.9-0.5-1.6-1.1-2.1c-0.6-0.5-1.5-0.8-2.7-0.8
		c-1.4,0-2.3,0.2-2.9,0.7c-0.6,0.4-0.9,1-0.9,1.6c0,0.4,0.1,0.7,0.4,1c0.2,0.3,0.6,0.6,1.1,0.8c0.3,0.1,1.2,0.4,2.6,0.8
		c2.1,0.6,3.5,1,4.4,1.4c0.8,0.4,1.5,0.9,2,1.5c0.5,0.7,0.7,1.5,0.7,2.5c0,1-0.3,1.9-0.9,2.8c-0.6,0.9-1.4,1.5-2.5,2
		c-1.1,0.5-2.3,0.7-3.7,0.7c-2.3,0-4-0.5-5.2-1.4C559.8,635.7,559,634.3,558.7,632.5"/>
	<path class="st1" d="M597.2,628.9c-1.1,0.4-2.7,0.8-4.8,1.1c-1.2,0.2-2.1,0.4-2.6,0.6c-0.5,0.2-0.9,0.5-1.2,1
		c-0.3,0.4-0.4,0.9-0.4,1.4c0,0.8,0.3,1.4,0.9,2c0.6,0.5,1.5,0.8,2.6,0.8c1.1,0,2.2-0.2,3-0.7c0.9-0.5,1.5-1.2,2-2
		c0.3-0.7,0.5-1.6,0.5-2.9L597.2,628.9z M597.4,635.5c-1.1,0.9-2.2,1.6-3.2,2c-1,0.4-2.1,0.6-3.3,0.6c-1.9,0-3.4-0.5-4.4-1.4
		c-1-0.9-1.5-2.1-1.5-3.6c0-0.9,0.2-1.6,0.6-2.3c0.4-0.7,0.9-1.3,1.5-1.7c0.6-0.4,1.3-0.8,2.1-1c0.6-0.2,1.5-0.3,2.6-0.4
		c2.4-0.3,4.2-0.6,5.3-1c0-0.4,0-0.7,0-0.8c0-1.2-0.3-2-0.8-2.5c-0.8-0.7-1.9-1-3.4-1c-1.4,0-2.4,0.2-3.1,0.7
		c-0.7,0.5-1.2,1.4-1.5,2.6l-2.9-0.4c0.3-1.2,0.7-2.2,1.3-3c0.6-0.8,1.5-1.3,2.6-1.8c1.1-0.4,2.5-0.6,4-0.6c1.5,0,2.7,0.2,3.6,0.5
		c0.9,0.4,1.6,0.8,2.1,1.3c0.4,0.5,0.7,1.2,0.9,2c0.1,0.5,0.1,1.4,0.1,2.7v3.9c0,2.7,0.1,4.5,0.2,5.2c0.1,0.7,0.4,1.4,0.7,2.1H598
		C597.7,637,597.5,636.3,597.4,635.5z"/>
	<path class="st1" d="M614.1,637.7v-17.5h2.7v2.5c1.3-1.9,3.1-2.8,5.5-2.8c1.1,0,2,0.2,2.9,0.6c0.9,0.4,1.5,0.9,2,1.5
		c0.4,0.6,0.7,1.3,0.9,2.2c0.1,0.6,0.2,1.5,0.2,2.9v10.7h-3v-10.6c0-1.2-0.1-2.1-0.3-2.7c-0.2-0.6-0.6-1.1-1.2-1.4
		c-0.6-0.4-1.3-0.5-2.1-0.5c-1.3,0-2.3,0.4-3.3,1.2c-0.9,0.8-1.4,2.3-1.4,4.5v9.5H614.1z"/>
	<path class="st1" d="M635,627.3h9.7c-0.1-1.5-0.5-2.6-1.1-3.3c-0.9-1.1-2.2-1.7-3.7-1.7c-1.4,0-2.5,0.5-3.4,1.4
		C635.6,624.5,635.1,625.7,635,627.3 M644.7,632l3.1,0.4c-0.5,1.8-1.4,3.2-2.7,4.1c-1.3,1-3,1.5-5,1.5c-2.5,0-4.6-0.8-6.1-2.4
		c-1.5-1.6-2.2-3.8-2.2-6.6c0-2.9,0.8-5.2,2.3-6.8c1.5-1.6,3.5-2.4,5.9-2.4c2.3,0,4.2,0.8,5.7,2.4c1.5,1.6,2.2,3.8,2.2,6.7
		c0,0.2,0,0.4,0,0.8h-13c0.1,1.9,0.6,3.4,1.6,4.4c1,1,2.2,1.5,3.6,1.5c1.1,0,2-0.3,2.8-0.9C643.7,634.2,644.3,633.3,644.7,632z"/>
	<path class="st1" d="M654.7,637.7l-5.3-17.5h3.1l2.8,10.1l1,3.8c0-0.2,0.3-1.4,0.9-3.6l2.8-10.2h3l2.6,10.1l0.9,3.3l1-3.4l3-10.1
		h2.9l-5.5,17.5h-3.1l-2.8-10.4l-0.7-3l-3.5,13.4H654.7z"/>
	<path class="st1" d="M687.1,629c0,2.2,0.5,3.9,1.4,5c0.9,1.1,2.1,1.7,3.3,1.7c1.3,0,2.4-0.5,3.3-1.6c0.9-1.1,1.4-2.7,1.4-4.8
		c0-2.4-0.5-4.1-1.4-5.2c-0.9-1.1-2.1-1.7-3.4-1.7c-1.3,0-2.4,0.5-3.3,1.6C687.5,625,687.1,626.7,687.1,629 M696.4,637.7v-2.2
		c-1.1,1.7-2.7,2.6-4.9,2.6c-1.4,0-2.7-0.4-3.8-1.1c-1.2-0.8-2.1-1.8-2.7-3.2c-0.6-1.4-1-3-1-4.7c0-1.7,0.3-3.3,0.9-4.7
		c0.6-1.4,1.5-2.5,2.6-3.3c1.2-0.8,2.5-1.1,3.9-1.1c1.1,0,2,0.2,2.8,0.7c0.8,0.4,1.5,1,2,1.7v-8.7h3v24.1H696.4z"/>
	<path class="st1" d="M715.1,628.9c-1.1,0.4-2.7,0.8-4.8,1.1c-1.2,0.2-2.1,0.4-2.6,0.6c-0.5,0.2-0.9,0.5-1.2,1
		c-0.3,0.4-0.4,0.9-0.4,1.4c0,0.8,0.3,1.4,0.9,2c0.6,0.5,1.5,0.8,2.6,0.8c1.1,0,2.2-0.2,3-0.7c0.9-0.5,1.5-1.2,2-2
		c0.3-0.7,0.5-1.6,0.5-2.9L715.1,628.9z M715.3,635.5c-1.1,0.9-2.2,1.6-3.2,2c-1,0.4-2.1,0.6-3.3,0.6c-1.9,0-3.4-0.5-4.4-1.4
		c-1-0.9-1.5-2.1-1.5-3.6c0-0.9,0.2-1.6,0.6-2.3c0.4-0.7,0.9-1.3,1.5-1.7c0.6-0.4,1.3-0.8,2.1-1c0.6-0.2,1.5-0.3,2.6-0.4
		c2.4-0.3,4.2-0.6,5.3-1c0-0.4,0-0.7,0-0.8c0-1.2-0.3-2-0.8-2.5c-0.8-0.7-1.9-1-3.4-1c-1.4,0-2.4,0.2-3.1,0.7
		c-0.7,0.5-1.2,1.4-1.5,2.6l-2.9-0.4c0.3-1.2,0.7-2.2,1.3-3c0.6-0.8,1.5-1.3,2.6-1.8c1.1-0.4,2.5-0.6,4-0.6c1.5,0,2.7,0.2,3.6,0.5
		c0.9,0.4,1.6,0.8,2.1,1.3c0.4,0.5,0.7,1.2,0.9,2c0.1,0.5,0.1,1.4,0.1,2.7v3.9c0,2.7,0.1,4.5,0.2,5.2c0.1,0.7,0.4,1.4,0.7,2.1h-3.1
		C715.6,637,715.4,636.3,715.3,635.5z"/>
	<path class="st1" d="M725.7,637.7l-5.3-17.5h3.1l2.8,10.1l1,3.8c0-0.2,0.3-1.4,0.9-3.6l2.8-10.2h3l2.6,10.1l0.9,3.3l1-3.4l3-10.1
		h2.9l-5.5,17.5h-3.1l-2.8-10.4l-0.7-3l-3.5,13.4H725.7z"/>
	<path class="st1" d="M746.9,637.7v-17.5h2.7v2.5c1.3-1.9,3.1-2.8,5.5-2.8c1.1,0,2,0.2,2.9,0.6c0.9,0.4,1.5,0.9,2,1.5
		c0.4,0.6,0.7,1.3,0.9,2.2c0.1,0.6,0.2,1.5,0.2,2.9v10.7h-3v-10.6c0-1.2-0.1-2.1-0.3-2.7c-0.2-0.6-0.6-1.1-1.2-1.4
		c-0.6-0.4-1.3-0.5-2.1-0.5c-1.3,0-2.3,0.4-3.3,1.2c-0.9,0.8-1.4,2.3-1.4,4.5v9.5H746.9z"/>
	<g>
		<path class="st2" d="M575.5,393c-15.3,0-27.9,14.6-29.5,33.4c1.7-0.4,3.5-0.6,5.3-0.6c13.4,0,24.2,10.8,24.2,24.2
			c0,6.6-2.6,12.6-6.9,16.9c2.2,0.7,4.5,1,6.9,1c16.4,0,29.7-16.8,29.7-37.5S591.9,393,575.5,393z"/>
		<ellipse class="st2" cx="555.2" cy="449.2" rx="12.5" ry="14.1"/>
	</g>
	<path class="st3" d="M501.7,430.5c56.6,94.3,142.2,42.9,197.2-76.2c-33.3,89.1-115,171-104.3,239.9H561
		C552.2,539.6,526.5,485,501.7,430.5"/>
</g>
</svg>
